<svg version="1.1" xmlns="http://www.w3.org/2000/svg" xmlns:xlink="http://www.w3.org/1999/xlink" width="500" height="500"><g data-paper-data="{&quot;description&quot;:&quot;Logo for AOS\n============\n\nThis logo was generated by MarkMaker at http://emblemmatic.org/markmaker/ and may be composed of elements designed by others.\n\nThe font is Lato Bold Italic designed by Łukasz Dziedzic and released under the OFL license via Google Fonts: https://www.google.com/fonts/specimen/Lato. The font includes this copyright statement: Copyright (c) 2010-2011 by tyPoland Lukasz Dziedzic (team@latofonts.com) with Reserved Font Name \\\&quot;Lato\\\&quot;. Licensed under the SIL Open Font License, Version 1.1.\n\nMarkMaker uses semantic data from the Princeton University WordNet database http://wordnet.princeton.edu and font descriptions from Google Fonts https://www.google.com/fonts.&quot;}" fill="none" fill-rule="nonzero" stroke="none" stroke-width="none" stroke-linecap="butt" stroke-linejoin="miter" stroke-miterlimit="10" stroke-dasharray="" stroke-dashoffset="0" font-family="none" font-weight="none" font-size="none" text-anchor="none" style="mix-blend-mode: normal"><path d="M50,450v-400h400v400z" fill="#526AF2" stroke-width="0"></path><g data-paper-data="{&quot;elementType&quot;:&quot;logo&quot;}" fill="#ffffff" stroke-width="1"><g data-paper-data="{&quot;elementType&quot;:&quot;text&quot;}"><g data-paper-data="{&quot;baseline&quot;:73.10000000000001,&quot;elementType&quot;:&quot;row&quot;}"><g data-paper-data="{&quot;baselineProportion&quot;:0.9891745602165088,&quot;fontSize&quot;:100,&quot;baseline&quot;:73.10000000000001,&quot;elementType&quot;:&quot;word&quot;}"><path d="M191.33663,309.65347h-16.58416c-1.87019,0 -3.35534,-0.44004 -4.45545,-1.32013c-1.10011,-0.88009 -1.78768,-2.06271 -2.06271,-3.54785l-4.9505,-24.91749h-44.47195l-11.05611,24.91749c-0.60506,1.26513 -1.59516,2.39274 -2.9703,3.38284c-1.37514,0.9901 -2.91529,1.48515 -4.62046,1.48515h-16.83168l57.67327,-119.30693h21.86469l28.46535,119.30693M125.49505,264.76898h34.73597l-8.08581,-40.84158c-0.44004,-1.9802 -0.88009,-4.07041 -1.32013,-6.27063c-0.44004,-2.20022 -0.85259,-4.67547 -1.23762,-7.42574c-1.0451,2.75028 -2.07646,5.29428 -3.09406,7.63201c-1.0176,2.33773 -1.96645,4.38669 -2.84653,6.14686z" data-paper-data="{&quot;elementType&quot;:&quot;letter&quot;,&quot;baseline&quot;:72.3,&quot;baselineProportion&quot;:1,&quot;fontSize&quot;:100}"></path><path d="M320.62706,241.9967c0,6.60066 -0.72882,12.88504 -2.18647,18.85314c-1.45765,5.9681 -3.54785,11.5099 -6.27063,16.62541c-2.72277,5.11551 -5.9956,9.73597 -9.81848,13.86139c-3.82288,4.12541 -8.11331,7.64576 -12.87129,10.56106c-4.75798,2.91529 -9.91474,5.15677 -15.4703,6.72442c-5.55556,1.56766 -11.38614,2.35149 -17.49175,2.35149c-7.59076,0 -14.41144,-1.34763 -20.46205,-4.0429c-6.05061,-2.69527 -11.20737,-6.40814 -15.4703,-11.13861c-4.26293,-4.73047 -7.522,-10.31353 -9.77723,-16.74917c-2.25523,-6.43564 -3.38284,-13.42134 -3.38284,-20.9571c0,-6.60066 0.72882,-12.88504 2.18647,-18.85314c1.45765,-5.9681 3.54785,-11.5099 6.27063,-16.62541c2.72277,-5.11551 5.9956,-9.73597 9.81848,-13.86139c3.82288,-4.12541 8.11331,-7.65952 12.87129,-10.60231c4.75798,-2.94279 9.91474,-5.19802 15.4703,-6.76568c5.55556,-1.56766 11.41364,-2.35149 17.57426,-2.35149c7.59076,0 14.41144,1.34763 20.46205,4.0429c6.05061,2.69527 11.19362,6.40814 15.42904,11.13861c4.23542,4.73047 7.48075,10.32728 9.73597,16.79043c2.25523,6.46315 3.38284,13.4626 3.38284,20.99835M298.67987,242.49175c0,-5.39054 -0.67382,-10.28603 -2.02145,-14.68647c-1.34763,-4.40044 -3.30033,-8.16832 -5.85809,-11.30363c-2.55776,-3.13531 -5.67932,-5.55556 -9.36469,-7.26073c-3.68537,-1.70517 -7.83828,-2.55776 -12.45875,-2.55776c-5.94059,0 -11.34488,1.21012 -16.21287,3.63036c-4.86799,2.42024 -9.03465,5.85809 -12.5,10.31353c-3.46535,4.45545 -6.14686,9.81848 -8.04455,16.08911c-1.89769,6.27063 -2.84653,13.22882 -2.84653,20.87459c0,5.39054 0.66007,10.28603 1.9802,14.68647c1.32013,4.40044 3.24532,8.15457 5.77558,11.26238c2.53025,3.10781 5.62431,5.50055 9.28218,7.17822c3.65787,1.67767 7.82453,2.5165 12.5,2.5165c5.9956,0 11.44114,-1.21012 16.33663,-3.63036c4.89549,-2.42024 9.07591,-5.83058 12.54125,-10.23102c3.46535,-4.40044 6.14686,-9.72222 8.04455,-15.96535c1.89769,-6.24312 2.84653,-13.21507 2.84653,-20.91584z" data-paper-data="{&quot;elementType&quot;:&quot;letter&quot;,&quot;baseline&quot;:73.10000000000001,&quot;baselineProportion&quot;:0.9891745602165088,&quot;fontSize&quot;:100}"></path><path d="M410.31353,211.79868c-0.77008,1.10011 -1.54015,1.91144 -2.31023,2.43399c-0.77008,0.52255 -1.70517,0.78383 -2.80528,0.78383c-1.10011,0 -2.22772,-0.44004 -3.38284,-1.32013c-1.15512,-0.88009 -2.53025,-1.85644 -4.12541,-2.92904c-1.59516,-1.07261 -3.4791,-2.04895 -5.65182,-2.92904c-2.17272,-0.88009 -4.79923,-1.32013 -7.87954,-1.32013c-3.0253,0 -5.69307,0.44004 -8.0033,1.32013c-2.31023,0.88009 -4.24917,2.09021 -5.81683,3.63036c-1.56766,1.54015 -2.75028,3.35534 -3.54785,5.44554c-0.79758,2.09021 -1.19637,4.34543 -1.19637,6.76568c0,2.53025 0.64631,4.63421 1.93894,6.31188c1.29263,1.67767 2.98405,3.14906 5.07426,4.41419c2.09021,1.26513 4.48295,2.39274 7.17822,3.38284c2.69527,0.9901 5.43179,2.0352 8.20957,3.13531c2.77778,1.10011 5.5143,2.36524 8.20957,3.79538c2.69527,1.43014 5.08801,3.19032 7.17822,5.28053c2.09021,2.09021 3.78163,4.60671 5.07426,7.5495c1.29263,2.94279 1.93894,6.5044 1.93894,10.68482c0,5.83058 -1.00385,11.33113 -3.01155,16.50165c-2.0077,5.17052 -4.89549,9.69472 -8.66337,13.57261c-3.76788,3.87789 -8.33333,6.9582 -13.69637,9.24092c-5.36304,2.28273 -11.39989,3.42409 -18.11056,3.42409c-3.46535,0 -6.87569,-0.37129 -10.23102,-1.11386c-3.35534,-0.74257 -6.51815,-1.80143 -9.48845,-3.17657c-2.9703,-1.37514 -5.72057,-3.0253 -8.25083,-4.9505c-2.53025,-1.92519 -4.73047,-4.07041 -6.60066,-6.43564l7.59076,-10.23102c0.60506,-0.77008 1.37514,-1.40264 2.31023,-1.89769c0.93509,-0.49505 1.87019,-0.74257 2.80528,-0.74257c0.88009,0 1.74642,0.27503 2.59901,0.82508c0.85259,0.55006 1.78768,1.22387 2.80528,2.02145c1.0176,0.79758 2.11771,1.67767 3.30033,2.64026c1.18262,0.9626 2.544,1.84268 4.08416,2.64026c1.54015,0.79758 3.27283,1.4714 5.19802,2.02145c1.92519,0.55006 4.15292,0.82508 6.68317,0.82508c6.21562,0 11.08361,-1.76018 14.60396,-5.28053c3.52035,-3.52035 5.28053,-8.38834 5.28053,-14.60396c0,-2.75028 -0.63256,-5.0055 -1.89769,-6.76568c-1.26513,-1.76018 -2.94279,-3.24532 -5.033,-4.45545c-2.09021,-1.21012 -4.45545,-2.26898 -7.09571,-3.17657c-2.64026,-0.90759 -5.34928,-1.87019 -8.12706,-2.88779c-2.77778,-1.0176 -5.4868,-2.20022 -8.12706,-3.54785c-2.64026,-1.34763 -5.0055,-3.08031 -7.09571,-5.19802c-2.09021,-2.11771 -3.76788,-4.71672 -5.033,-7.79703c-1.26513,-3.08031 -1.89769,-6.87569 -1.89769,-11.38614c0,-5.11551 0.94884,-10.0385 2.84653,-14.76898c1.89769,-4.73047 4.60671,-8.89714 8.12706,-12.5c3.52035,-3.60286 7.79703,-6.49065 12.83003,-8.66337c5.033,-2.17272 10.71232,-3.25908 17.03795,-3.25908c3.24532,0 6.36689,0.33003 9.36469,0.9901c2.9978,0.66007 5.78933,1.59516 8.37459,2.80528c2.58526,1.21012 4.96425,2.65402 7.13696,4.33168c2.17272,1.67767 4.05666,3.5341 5.65182,5.56931z" data-paper-data="{&quot;elementType&quot;:&quot;letter&quot;,&quot;baseline&quot;:73.05,&quot;baselineProportion&quot;:0.9891672308733921,&quot;fontSize&quot;:100}"></path></g></g></g></g></g></svg>